<?xml version="1.0" encoding="utf-8"?><svg viewBox="0 0 1920 675" xmlns="http://www.w3.org/2000/svg" xmlns:xlink="http://www.w3.org/1999/xlink"><style>:root>svg{display:none}:root>svg:target{display:block}</style><svg fill="none" viewBox="0 0 15 15" id="faq--close" xmlns="http://www.w3.org/2000/svg"><path d="M0 1.414L1.414 0l12.728 12.728-1.414 1.414L0 1.414z" fill="#fff"/><path d="M1.414 14.142L0 12.728 12.728 0l1.414 1.414L1.414 14.142z" fill="#fff"/></svg><svg fill="none" viewBox="0 0 32 32" id="footer--inst" xmlns="http://www.w3.org/2000/svg"><path d="M16 0c-4.346 0-4.89.018-6.597.097C7.7.175 6.537.445 5.519.84a7.854 7.854 0 00-2.834 1.846A7.829 7.829 0 00.84 5.52C.445 6.538.173 7.7.097 9.404.018 11.111 0 11.655 0 16.001c0 4.345.018 4.89.097 6.596.076 1.704.348 2.866.743 3.884a7.83 7.83 0 001.845 2.834 7.854 7.854 0 002.834 1.846c1.018.394 2.182.666 3.884.744 1.706.077 2.25.095 6.596.095s4.89-.018 6.597-.095c1.703-.078 2.866-.35 3.884-.744a7.854 7.854 0 002.834-1.846 7.834 7.834 0 001.846-2.834c.395-1.018.665-2.18.743-3.884.079-1.706.097-2.25.097-6.596s-.018-4.89-.097-6.597c-.078-1.703-.348-2.866-.743-3.884a7.833 7.833 0 00-1.846-2.834A7.853 7.853 0 0026.48.84C25.462.445 24.3.175 22.596.097 20.889.018 20.345 0 15.999 0zm0 2.883c4.271 0 4.777.017 6.465.093 1.56.072 2.406.333 2.97.552.747.29 1.281.637 1.84 1.196.56.56.907 1.094 1.197 1.84.219.565.48 1.411.552 2.972.076 1.687.093 2.193.093 6.465s-.017 4.778-.093 6.464c-.072 1.561-.333 2.408-.552 2.972a4.964 4.964 0 01-1.196 1.84c-.56.56-1.094.906-1.84 1.196-.565.22-1.411.48-2.97.55-1.689.077-2.193.094-6.467.094-4.272 0-4.778-.017-6.464-.093-1.56-.07-2.408-.332-2.972-.55a4.947 4.947 0 01-1.839-1.197 4.968 4.968 0 01-1.197-1.84c-.22-.564-.48-1.41-.55-2.972-.077-1.686-.094-2.192-.094-6.464s.017-4.778.093-6.465c.07-1.56.331-2.407.55-2.972.29-.746.639-1.28 1.198-1.84a4.947 4.947 0 011.839-1.196c.564-.219 1.412-.48 2.972-.552 1.686-.076 2.192-.093 6.464-.093z" fill="#fff"/><path d="M16.003 21.333a5.333 5.333 0 11-.001-10.666 5.333 5.333 0 010 10.666zm0-13.549a8.216 8.216 0 100 16.432 8.216 8.216 0 000-16.432zM26.46 7.459a1.921 1.921 0 11-3.843-.002 1.921 1.921 0 013.843.002z" fill="#fff"/></svg><svg fill="none" viewBox="0 0 32 32" id="footer--tg" xmlns="http://www.w3.org/2000/svg"><path d="M30.985.06L.467 13.621c-.614.279-.623 1.392-.023 1.71L8.26 19.07l2.911 10.704c.173.576.79.77 1.188.372l4.471-4.85 8.5 6.572c.442.322 1.023.031 1.126-.563l5.527-30.26c.118-.674-.45-1.232-.999-.984zM12.608 21.096l-.497 5.502-2.36-8.47 16.644-12.74-13.787 15.708z" fill="#fff"/></svg><svg fill="none" viewBox="0 0 50 32" id="footer--vk" xmlns="http://www.w3.org/2000/svg"><path d="M49.734 28.9a4.135 4.135 0 00-.17-.366c-.867-1.752-2.525-3.904-4.971-6.454l-.053-.058-.026-.03-.026-.028h-.025c-1.111-1.188-1.814-1.986-2.108-2.396-.538-.777-.66-1.566-.365-2.364.21-.604.99-1.879 2.343-3.827a203.726 203.726 0 001.692-2.482c3.003-4.478 4.303-7.339 3.905-8.586l-.157-.292c-.104-.175-.373-.336-.807-.482-.434-.146-.99-.169-1.666-.072l-7.496.06a1.906 1.906 0 00-.522.013c-.173.03-.286.059-.338.088a6.2 6.2 0 01-.13.072l-.105.088a1.22 1.22 0 00-.286.308 2.029 2.029 0 00-.26.51 50.423 50.423 0 01-2.785 6.572 64.78 64.78 0 01-1.77 3.14c-.538.886-.989 1.538-1.353 1.955a9.91 9.91 0 01-.99 1.008c-.295.254-.52.36-.676.321a10.846 10.846 0 01-.442-.118 1.868 1.868 0 01-.586-.715c-.148-.301-.248-.68-.3-1.138a13.543 13.543 0 01-.09-1.183c-.01-.331-.005-.798.012-1.402.018-.603.026-1.011.026-1.226 0-.74.013-1.542.04-2.41l.064-2.058c.018-.506.026-1.042.026-1.607 0-.563-.03-1.007-.091-1.329a5.043 5.043 0 00-.273-.934 1.53 1.53 0 00-.534-.7 2.821 2.821 0 00-.872-.394c-.92-.234-2.092-.36-3.514-.38-3.229-.038-5.302.196-6.222.701a3.608 3.608 0 00-.99.877c-.312.428-.355.663-.13.7 1.042.176 1.78.595 2.213 1.256l.157.35c.12.255.242.702.364 1.344.122.642.2 1.352.235 2.132.086 1.42.086 2.637 0 3.65a48.033 48.033 0 01-.248 2.364c-.078.565-.195 1.022-.351 1.373-.157.351-.26.566-.313.643a.481.481 0 01-.13.146c-.226.097-.46.146-.703.146-.244 0-.538-.136-.886-.41-.347-.27-.707-.646-1.08-1.123-.374-.477-.793-1.144-1.263-2.001a36.152 36.152 0 01-1.458-3.037l-.416-.847a76.226 76.226 0 01-1.067-2.38 48.694 48.694 0 01-1.198-3.023c-.139-.408-.347-.72-.624-.935l-.13-.088a1.708 1.708 0 00-.417-.247 2.567 2.567 0 00-.6-.19l-7.132.058c-.729 0-1.223.186-1.483.555l-.105.175C.026 2.291 0 2.447 0 2.661c0 .215.052.477.157.788a101.826 101.826 0 003.397 7.942c1.224 2.552 2.286 4.606 3.19 6.163a73.393 73.393 0 002.759 4.41c.937 1.383 1.557 2.268 1.86 2.657.304.39.542.682.716.876l.65.702c.417.467 1.03 1.027 1.836 1.679.807.653 1.7 1.294 2.681 1.926.98.633 2.122 1.148 3.423 1.548 1.302.4 2.569.56 3.8.482h2.994c.608-.058 1.067-.272 1.38-.643l.104-.146c.069-.116.134-.297.195-.54.06-.243.091-.51.091-.802-.018-.838.04-1.593.17-2.264.13-.672.277-1.178.442-1.52.165-.339.35-.627.56-.86.209-.234.355-.374.443-.424.087-.048.157-.082.208-.102.416-.155.906-.004 1.471.452a9.15 9.15 0 011.588 1.694 50.853 50.853 0 001.783 2.264c.694.837 1.301 1.46 1.822 1.868l.522.352c.346.233.798.447 1.353.643.555.193 1.041.243 1.458.145l6.664-.117c.66 0 1.171-.121 1.536-.366.364-.241.581-.51.65-.803.07-.292.074-.621.013-.992-.06-.37-.122-.628-.182-.774z" fill="#fff"/></svg><svg fill="none" viewBox="0 0 142 60" id="header--logo" xmlns="http://www.w3.org/2000/svg"><path d="M24.762 37.485v13.132c0 3.117-.85 5.456-2.55 7.015C20.53 59.21 18.127 60 15 60c-1.603 0-3.098-.18-4.485-.54-1.388-.34-2.57-.839-3.548-1.498l2.228-4.617c.626.48 1.417.87 2.375 1.169.958.3 1.876.45 2.756.45 1.329 0 2.296-.29 2.902-.87.606-.58.909-1.429.909-2.548v-.3c-.997 1.16-2.473 1.739-4.427 1.739a8.001 8.001 0 01-3.84-.96c-1.173-.659-2.111-1.588-2.815-2.788C6.352 48.018 6 46.63 6 45.07c0-1.559.352-2.938 1.055-4.137.704-1.2 1.642-2.118 2.815-2.758a7.808 7.808 0 013.84-.99c2.189 0 3.772.72 4.75 2.16v-1.86h6.302zM15.47 47.71c.782 0 1.427-.24 1.935-.72.528-.5.791-1.14.791-1.919 0-.78-.263-1.409-.791-1.888-.508-.48-1.153-.72-1.935-.72-.801 0-1.466.24-1.993.72-.509.48-.763 1.109-.763 1.888 0 .78.264 1.42.792 1.919.528.48 1.182.72 1.964.72zM34.874 37.185c2.815 0 4.965.65 6.45 1.95 1.485 1.278 2.228 3.257 2.228 5.935v8.814h-6.157v-2.158c-.762 1.639-2.276 2.458-4.543 2.458-1.27 0-2.355-.22-3.254-.66-.88-.459-1.554-1.069-2.023-1.828-.45-.78-.675-1.649-.675-2.608 0-1.62.606-2.849 1.818-3.688 1.212-.84 3.049-1.26 5.511-1.26h2.668c-.215-1.278-1.221-1.918-3.02-1.918-.723 0-1.455.12-2.198.36-.743.22-1.378.53-1.906.93l-2.11-4.468c.918-.58 2.023-1.029 3.312-1.349 1.31-.34 2.61-.51 3.9-.51zm-.029 12.922c.47 0 .89-.13 1.26-.39.372-.26.646-.65.822-1.169v-1.14h-1.642c-1.349 0-2.023.46-2.023 1.38 0 .38.137.7.41.96.294.239.684.359 1.173.359zM67.64 37.185c1.935 0 3.479.61 4.632 1.83 1.172 1.218 1.759 3.057 1.759 5.516v9.353h-6.626V45.7c0-1.879-.596-2.818-1.788-2.818-.625 0-1.133.24-1.524.72-.372.479-.557 1.239-.557 2.278v8.004H56.91V45.7c0-1.879-.596-2.818-1.788-2.818-.625 0-1.133.24-1.524.72-.372.479-.557 1.239-.557 2.278v8.004h-6.626V37.485h6.303v1.53c1.192-1.22 2.707-1.83 4.544-1.83 1.075 0 2.042.21 2.902.63.86.4 1.564 1.02 2.111 1.859a6.39 6.39 0 012.345-1.829c.919-.44 1.925-.66 3.02-.66zM94.253 45.67c0 .1-.03.63-.088 1.589h-11.14c.235.62.625 1.1 1.173 1.439.547.32 1.231.48 2.052.48.704 0 1.29-.09 1.759-.27.488-.18 1.016-.49 1.583-.93l3.46 3.568c-1.564 1.759-3.9 2.638-7.007 2.638-1.935 0-3.636-.36-5.101-1.079-1.466-.74-2.6-1.759-3.4-3.058-.802-1.3-1.203-2.758-1.203-4.377 0-1.639.391-3.098 1.173-4.377a8.28 8.28 0 013.254-3.028c1.387-.72 2.941-1.08 4.661-1.08 1.622 0 3.098.33 4.427.99a7.567 7.567 0 013.195 2.908c.802 1.28 1.202 2.808 1.202 4.587zm-8.765-3.867c-.684 0-1.251.19-1.7.57-.45.379-.743.919-.88 1.618h5.16c-.137-.68-.43-1.21-.88-1.589-.45-.4-1.016-.6-1.7-.6zM99.334 54.184c-1.114 0-2.042-.36-2.785-1.079-.723-.74-1.085-1.679-1.085-2.818 0-1.14.362-2.059 1.085-2.758.743-.72 1.671-1.08 2.785-1.08s2.033.36 2.756 1.08c.743.7 1.114 1.619 1.114 2.758 0 1.14-.371 2.078-1.114 2.818-.723.72-1.642 1.08-2.756 1.08zM111.55 39.254c1.173-1.379 2.903-2.069 5.189-2.069v5.997a9.812 9.812 0 00-1.465-.12c-2.267 0-3.401 1.179-3.401 3.537v7.285h-6.625V37.485h6.302v1.77zM136.148 37.485v16.4h-6.303v-1.56a5.835 5.835 0 01-2.052 1.41c-.782.3-1.612.45-2.492.45-2.032 0-3.664-.63-4.896-1.89-1.231-1.279-1.846-3.197-1.846-5.756v-9.054h6.625v7.885c0 1.12.176 1.919.528 2.399.351.48.869.719 1.553.719.645 0 1.183-.26 1.613-.78.43-.54.645-1.378.645-2.518v-7.705h6.625z" fill="#009269"/><path d="M14.114 2.14A4 4 0 0117.654 0H50.38c3.008 0 4.94 3.197 3.54 5.86l-11.034 21a4 4 0 01-3.54 2.14H6.62c-3.008 0-4.94-3.197-3.54-5.86l11.034-21z" fill="#FF7A00"/><ellipse rx="11.991" ry="4.022" transform="matrix(.65618 -.7546 .77717 .62928 17.142 16.009)" fill="#fff"/><ellipse rx="9.354" ry="5.099" transform="matrix(.0903 -.99591 .99645 .08412 36.742 16.13)" fill="#fff"/><path d="M25.53 8.367h9.217l-2.921 10.336H19.92l5.61-10.336z" fill="#fff"/><ellipse rx="5.262" ry="3.759" transform="matrix(.7196 -.6944 .7196 .6944 21.193 13.042)" fill="#FF7A00"/><ellipse rx="4.761" ry="3.258" transform="matrix(.7196 -.6944 .7196 .6944 21.194 13.042)" fill="#fff"/><path d="M18.85 15.304a.72.72 0 010-1.044l.721-.696a.776.776 0 01.433-.209c.505-.07.938.348.866.836a.729.729 0 01-.217.417l-.721.696a.785.785 0 01-1.082 0zM23.176 14.957a.785.785 0 01-1.082 0l-.177-.172a.724.724 0 01-.223-.565.752.752 0 01.719-.694.78.78 0 01.585.215l.178.171a.72.72 0 010 1.044zM23.538 10.78a.72.72 0 010 1.044l-.722.696a.776.776 0 01-.432.209c-.505.07-.938-.348-.866-.836a.728.728 0 01.216-.417l.722-.696a.785.785 0 011.082 0zM19.21 11.127a.785.785 0 011.082 0l.178.172c.154.15.236.355.223.565a.752.752 0 01-.72.694.78.78 0 01-.585-.215l-.178-.171a.72.72 0 010-1.045z" fill="#FF7A00"/><ellipse rx="1.037" ry="1.231" transform="matrix(.86603 .5 -.50535 .86291 34.92 15.3)" fill="#FF7A00"/><path d="M35.241 15.431c-.243.415-.645.51-.864.384-.218-.126-.333-.52-.09-.935.242-.414.644-.51.863-.384.219.127.334.52.091.935z" fill="#fff" stroke="#FF7A00" stroke-width=".5"/><ellipse rx="1.037" ry="1.296" transform="matrix(.86603 .5 -.50535 .86291 36.96 11.764)" fill="#FF7A00"/><path d="M37.283 11.894a1.02 1.02 0 01-.466.43c-.169.071-.317.063-.425 0-.108-.062-.189-.186-.21-.367-.021-.18.022-.402.146-.614.124-.213.297-.36.466-.43.168-.072.317-.063.425 0 .108.062.189.185.21.366a1.01 1.01 0 01-.146.615z" fill="#fff" stroke="#FF7A00" stroke-width=".5"/><ellipse rx="1.037" ry="1.296" transform="matrix(.86603 .5 -.50535 .86291 34.115 12.515)" fill="#FF7A00"/><path d="M34.437 12.645a1.021 1.021 0 01-.466.43c-.169.071-.317.063-.425 0-.108-.062-.189-.186-.21-.367-.021-.18.022-.402.146-.614.124-.213.297-.36.466-.43.168-.072.317-.063.425 0 .108.062.189.186.21.366.02.18-.022.402-.146.615z" fill="#fff" stroke="#FF7A00" stroke-width=".5"/><ellipse rx="1.037" ry="1.296" transform="matrix(.86603 .5 -.50535 .86291 37.721 14.597)" fill="#FF7A00"/><path d="M38.042 14.727a1.021 1.021 0 01-.465.43c-.169.071-.317.063-.426 0-.108-.062-.189-.186-.21-.367-.02-.18.022-.402.146-.614.125-.213.297-.36.466-.43.169-.072.317-.063.425 0 .109.062.19.186.21.367a1.01 1.01 0 01-.146.614z" fill="#fff" stroke="#FF7A00" stroke-width=".5"/><path d="M29.61 8.367l.873-2.109c.095-.227.269-.41.49-.518 1.411-.69 2.774-1.458 3.482-3.28" stroke="#fff" stroke-linecap="round"/><path d="M59.963 5.184L62.556 0h5.704l10.37 23.856-2.592 5.181h-5.704L59.963 5.184z" fill="#FF7A00"/><path d="M87.443 5.705L90.037 0h-7.26l-31.11 22.296-3.111 6.741h7.259L87.443 5.705zM92.628 5.184L95.222 0h5.703l10.371 23.856-2.593 5.181H103L92.628 5.184z" fill="#FF7A00"/><path d="M120.11 5.705L122.704 0h-7.26l-31.11 22.296-3.112 6.741h7.26L120.11 5.705zM122.185 29.037h-8.296l14-29.037h8.296l-14 29.037z" fill="#FF7A00"/><path d="M137.741 29.037h-23.852l3.63-6.74h23.851l-3.629 6.74z" fill="#FF7A00"/></svg><svg fill="none" viewBox="0 0 1920 675" id="hero--bg" xmlns="http://www.w3.org/2000/svg"><path opacity=".4" d="M0 0h1920v560s-331.65 100.89-558.4 99.5c-149.43-.916-225.96-42.175-375.2-47-224.408-7.256-343.623 74.57-567.2 60.5C248.431 662.253 0 590.5 0 590.5V0z" fill="url(#fpaint0_radial)"/><defs><radialGradient id="fpaint0_radial" cx="0" cy="0" r="1" gradientUnits="userSpaceOnUse" gradientTransform="matrix(1920.0028 675.00242 -1003.51222 2854.4287 0 0)"><stop offset=".263" stop-color="#00A9D0"/><stop offset="1" stop-color="#13EAC3"/></radialGradient></defs></svg><svg fill="none" viewBox="0 0 90 56" id="ico--icon" xmlns="http://www.w3.org/2000/svg"><path d="M20.65 2.558A4 4 0 0124.383 0h59.784c2.81 0 4.744 2.82 3.731 5.442l-18.548 48A4 4 0 0165.62 56H5.833c-2.81 0-4.744-2.82-3.731-5.442l18.548-48z" fill="#FF7A00"/><ellipse rx="23.125" ry="7.756" transform="matrix(.65618 -.7546 .77717 .62928 25.136 30.873)" fill="#fff"/><ellipse rx="18.039" ry="9.833" transform="matrix(.0903 -.99591 .99645 .08412 62.935 31.108)" fill="#fff"/><path d="M41.31 16.136h17.776l-5.633 19.932H30.491l10.82-19.932z" fill="#fff"/><ellipse rx="10.149" ry="7.249" transform="matrix(.7196 -.6944 .7196 .6944 32.95 25.153)" fill="#FF7A00"/><ellipse rx="9.182" ry="6.282" transform="matrix(.7196 -.6944 .7196 .6944 32.95 25.153)" fill="#fff"/><path d="M28.106 29.202a.958.958 0 010-1.389l1.823-1.758c.156-.15.358-.248.576-.278l.755-.104c.671-.093 1.247.463 1.151 1.11l-.108.73a.97.97 0 01-.287.555l-1.823 1.759a1.044 1.044 0 01-1.44 0l-.647-.625zM36.452 29.156a1.044 1.044 0 01-1.44 0l-.811-.783a.963.963 0 01-.296-.752l.035-.59c.03-.497.442-.894.957-.923l.611-.035c.29-.016.574.088.78.286l.811.784a.958.958 0 010 1.389l-.647.624zM37.795 21.102a.958.958 0 010 1.39l-1.823 1.758c-.155.15-.357.248-.575.278l-.755.104c-.672.092-1.248-.463-1.152-1.111l.108-.729a.97.97 0 01.288-.555l1.822-1.76a1.044 1.044 0 011.44 0l.647.625zM29.448 21.148a1.044 1.044 0 011.44 0l.811.784a.963.963 0 01.297.752l-.036.59c-.03.497-.441.893-.956.923l-.612.034a1.038 1.038 0 01-.779-.286l-.812-.783a.958.958 0 010-1.389l.647-.625z" fill="#FF7A00"/><ellipse rx="1.967" ry="2.374" transform="matrix(.86603 .5 -.50535 .86291 63.635 28.242)" fill="#FF7A00"/><ellipse rx=".983" ry="1.424" transform="matrix(.86603 .5 -.50535 .86291 63.634 28.242)" fill="#fff"/><ellipse rx="1.967" ry="2.374" transform="matrix(.86603 .5 -.50535 .86291 62.147 22.998)" fill="#FF7A00"/><ellipse rx=".983" ry="1.424" transform="matrix(.86603 .5 -.50535 .86291 62.147 22.998)" fill="#fff"/><ellipse rx="1.967" ry="2.374" transform="matrix(.86603 .5 -.50535 .86291 58.308 29.552)" fill="#FF7A00"/><ellipse rx=".983" ry="1.424" transform="matrix(.86603 .5 -.50535 .86291 58.308 29.552)" fill="#fff"/><ellipse rx="1.967" ry="2.374" transform="matrix(.86603 .5 -.50535 .86291 56.822 24.309)" fill="#FF7A00"/><ellipse rx=".983" ry="1.424" transform="matrix(.86603 .5 -.50535 .86291 56.821 24.308)" fill="#fff"/><path d="M49.18 16.136L51 11.742c.095-.227.27-.41.49-.518 2.834-1.372 5.616-2.829 7.034-6.478" stroke="#fff" stroke-linecap="round"/></svg><svg fill="none" viewBox="0 0 16 16" id="popup--close" xmlns="http://www.w3.org/2000/svg"><path d="M15 1L1 15M1 1l14 14" stroke="#fff" stroke-width="2" stroke-linecap="round" stroke-linejoin="round"/></svg><svg fill="none" viewBox="0 0 40 32" id="preference--1" xmlns="http://www.w3.org/2000/svg"><path d="M1.139 6.335C.934 5.243 2.47 4.629 3.06 5.62c1.881 3.17 3.89 6.504 5.497 9.05a78.228 78.228 0 002.057 3.13c.27.385.516.712.72.95.1.117.21.238.326.338.058.05.14.115.24.172.083.048.284.152.556.152.341 0 .579-.161.68-.24.116-.091.2-.19.254-.26.11-.144.206-.313.287-.471.168-.326.356-.77.556-1.285.404-1.042.9-2.487 1.433-4.132 1.07-3.294 2.313-7.45 3.326-10.907.287-.98 1.723-.98 2.009 0 1.009 3.458 2.248 7.613 3.313 10.907.532 1.644 1.026 3.09 1.428 4.131.2.516.388.96.555 1.285.081.158.177.328.287.47.054.071.138.17.253.261.102.08.34.241.682.241.271 0 .472-.104.555-.152.1-.057.183-.122.24-.172.116-.1.227-.221.327-.338.204-.238.45-.565.721-.95a78.294 78.294 0 002.062-3.133c1.61-2.548 3.625-5.885 5.51-9.055.59-.992 2.126-.378 1.92.714l-4.48 23.858a1 1 0 01-.983.815H6.585a1 1 0 01-.983-.816L1.138 6.334z" stroke="#00A9D0" stroke-width="2"/></svg><svg fill="none" viewBox="0 0 16 32" id="preference--2" xmlns="http://www.w3.org/2000/svg"><path d="M13.433 22.31c0-1.265-.41-2.296-1.23-3.093-.821-.81-2.268-1.573-4.342-2.29-2.575-.81-4.38-1.766-5.417-2.872C1.407 12.94.889 11.498.889 9.732c0-1.857.57-3.361 1.709-4.512 1.139-1.162 2.688-1.823 4.648-1.982V0H8.99v3.238c2.005.182 3.555.934 4.649 2.255 1.105 1.322 1.657 3.116 1.657 5.384h-2.033c0-1.789-.467-3.207-1.402-4.256-.922-1.06-2.187-1.589-3.794-1.589-1.617 0-2.882.427-3.794 1.282-.9.843-1.35 1.97-1.35 3.384 0 1.367.416 2.438 1.248 3.212.832.764 2.244 1.487 4.238 2.17 2.005.673 3.458 1.322 4.358 1.95.912.614 1.59 1.35 2.034 2.204.455.843.683 1.857.683 3.042 0 1.868-.586 3.378-1.76 4.529-1.162 1.139-2.763 1.788-4.802 1.948V32H7.195v-3.23c-2.29-.148-4.062-.866-5.315-2.154C.627 25.319 0 23.546 0 21.302h2.05c0 1.777.52 3.172 1.556 4.186 1.037 1.003 2.484 1.504 4.34 1.504 1.619 0 2.934-.433 3.949-1.298 1.025-.866 1.538-1.994 1.538-3.384z" fill="#00A9D0"/></svg><svg fill="none" viewBox="0 0 34 32" id="preference--3" xmlns="http://www.w3.org/2000/svg"><path d="M0 20.219L1.22 19 13 30.781 11.781 32 .001 20.219z" fill="#00A9D0"/><path d="M1.219 32L0 30.78 11.78 19 13 20.219 1.218 31.999z" fill="#00A9D0"/><circle cx="26.5" cy="25.5" r="5.5" stroke="#00A9D0" stroke-width="2"/><path d="M1 1h11v11H1V1zM20.731 12L26.5 2.001 32.269 12H20.73z" stroke="#00A9D0" stroke-width="2"/></svg><svg fill="none" viewBox="0 0 40 32" id="preference--4" xmlns="http://www.w3.org/2000/svg"><path d="M14.585 21.377L7.792 31m0 0L1 21.377M7.792 31V8.5c0-1.99.781-3.897 2.17-5.303A7.365 7.365 0 0115.203 1h7.874M24.774 10.623L31.566 1m0 0l6.793 9.623M31.566 1v22.5c0 1.99-.78 3.897-2.17 5.303A7.365 7.365 0 0124.156 31h-7.873" stroke="#00A9D0" stroke-width="2" stroke-linecap="round" stroke-linejoin="round"/></svg><svg fill="none" viewBox="0 0 32 32" id="preference--5" xmlns="http://www.w3.org/2000/svg"><circle cx="16" cy="16" r="15" stroke="#00A9D0" stroke-width="2"/><path d="M15.428 6.286V16.57M15.428 16.571h6.857" stroke="#00A9D0" stroke-width="2" stroke-linecap="round"/></svg></svg>